#!OML:ASF E:\motion texture\Top Level 1\Subject 1\Session 1\male.ASF
:FULLY-SPECIFIED
:DEGREES
555
root -10.2409 18.1861 4.31128 865.366 -94.3369 -864.241
lowerback 4.57926 -4.06703 -4.27333
upperback -1.70963 -5.63554 1.74781
thorax -3.74631 -2.68037 4.61005
lowerneck -20.2024 -1.85968 -4.9136
upperneck 15.0279 -2.29332 5.92376
head 8.09928 -0.771823 2.49997
rclavicle 2.14905e-014 -2.54444e-014
rhumerus -76.847 13.3213 -80.5128
rradius 60.8947
rwrist -9.64319
rhand -17.9278 -11.0261
rfingers 7.12502
rthumb 8.33998 -40.8415
lclavicle 2.14905e-014 -2.54444e-014
lhumerus 12.4074 -16.3214 79.7432
lradius 83.131
lwrist 6.87215
lhand -15.7265 6.56874
lfingers 7.12502
lthumb 10.464 36.2883
rfemur -88.9661 -7.1882 22.3799
rtibia 81.5475
rfoot 365.004 -201.614
rtoes 8.41128
lfemur 8.31827 -7.90307 -27.3474
ltibia 17.3574
lfoot 528.666 175.491
ltoes -10.4522
556
root -10.3824 18.17 4.30155 863.366 -94.2795 -861.964
lowerback 4.33541 -4.02103 -4.32122
upperback -1.79568 -5.5695 1.73428
thorax -3.70249 -2.64673 4.60231
lowerneck -20.1903 -1.88024 -4.92261
upperneck 14.9978 -2.31262 5.8989
head 8.088 -0.784199 2.49023
rclavicle 2.10774e-014 -7.15625e-015
rhumerus -76.3494 13.1986 -80.4274
rradius 61.0083
rwrist -9.72105
rhand -17.962 -11.1119
rfingers 7.12502
rthumb 8.30697 -40.9286
lclavicle 2.10774e-014 -7.15625e-015
lhumerus 12.1882 -16.2017 79.8066
lradius 83.1362
lwrist 6.73634
lhand -15.6361 6.47703
lfingers 7.12502
lthumb 10.5512 36.1922
rfemur -88.0213 -7.24079 22.3413
rtibia 84.4125
rfoot 366.408 -220.391
rtoes 8.74908
lfemur 8.55383 -7.90944 -27.4288
ltibia 17.2659
lfoot 528.682 175.404
ltoes -11.1462
557
root -10.526 18.1528 4.2912 861.441 -94.2405 -859.749
lowerback 4.05971 -3.9776 -4.3762
upperback -1.88172 -5.50589 1.71994
thorax -3.63989 -2.61485 4.59544
lowerneck -20.1725 -1.90484 -4.93599
upperneck 14.9634 -2.3382 5.88361
head 8.07485 -0.79895 2.48359
rclavicle -9.85227e-015 7.95139e-015
rhumerus -75.7889 13.0472 -80.3619
rradius 61.1351
rwrist -9.80484
rhand -17.9924 -11.2188
rfingers 7.12502
rthumb 8.27768 -41.0366
lclavicle -9.85227e-015 7.95139e-015
lhumerus 11.8908 -16.1119 79.9201
lradius 83.1121
lwrist 6.55593
lhand -15.543 6.37186
lfingers 7.12502
lthumb 10.641 36.0824
rfemur -86.9287 -7.322 22.2686
rtibia 87.0482
rfoot 368.489 -239.298
rtoes 9.12127
lfemur 8.78951 -7.88454 -27.4898
ltibia 17.1547
lfoot 528.71 175.265
ltoes -11.7856
558
root -10.6718 18.1345 4.28006 859.697 -94.2276 -857.697
lowerback 3.75436 -3.94111 -4.44047
upperback -1.97603 -5.45085 1.70455
thorax -3.56757 -2.58728 4.59142
lowerneck -20.1394 -1.9318 -4.95356
upperneck 14.9304 -2.36864 5.87819
head 8.06004 -0.815526 2.48036
rclavicle -4.52515e-014 -1.11319e-014
rhumerus -75.1757 12.8716 -80.3224
rradius 61.2672
rwrist -9.89739
rhand -18.0107 -11.3484
rfingers 7.12502
rthumb 8.25996 -41.1669
lclavicle -4.52515e-014 -1.11319e-014
lhumerus 11.5074 -16.0543 80.0806
lradius 83.0576
lwrist 6.34832
lhand -15.4581 6.26699
lfingers 7.12502
lthumb 10.7229 35.9733
rfemur -85.696 -7.43899 22.162
rtibia 88.7879
rfoot 373.527 -258.317
rtoes 9.54597
lfemur 9.02285 -7.84434 -27.5355
ltibia 17.0246
lfoot 528.752 175.083
ltoes -12.3841
559
root -10.8201 18.1154 4.26803 858.255 -94.2426 -855.93
lowerback 3.4135 -3.91351 -4.51314
upperback -2.07461 -5.40645 1.68977
thorax -3.47776 -2.56543 4.59084
lowerneck -20.1036 -1.96214 -4.9743
upperneck 14.9043 -2.40463 5.87932
head 8.04759 -0.83431 2.47924
rclavicle -1.04409e-014 2.06736e-014
rhumerus -74.5023 12.6689 -80.3053
rradius 61.4025
rwrist -9.99498
rhand -18.0348 -11.4872
rfingers 7.12502
rthumb 8.23673 -41.3067
lclavicle -1.04409e-014 2.06736e-014
lhumerus 11.0446 -16.0273 80.2877
lradius 82.9713
lwrist 6.12703
lhand -15.3875 6.16655
lfingers 7.12502
lthumb 10.791 35.8694
rfemur -84.3278 -7.59173 22.0234
rtibia 89.1719
rfoot 540.12 -262.367
rtoes 10.0989
lfemur 9.24988 -7.79254 -27.5603
ltibia 16.883
lfoot 528.811 174.853
ltoes -12.9393
